<svg xmlns="http://www.w3.org/2000/svg" width="410" height="404" fill="none" viewBox="0 0 410 404">
  <path fill="#646CFF" d="M399.641 59.524c8.18-21.045-11.877-41.102-32.922-32.922L17.348 162.88c-23.05 8.963-21.189 41.93 2.624 48.265l90.784 24.225a8.25 8.25 0 0 0 10.104-5.915l24.226-90.784c6.334-23.812 39.302-25.674 48.265-2.624l136.28 349.371c8.18 21.045 40.102 21.045 48.282 0l21.028-54.099c8.2-21.088-11.885-41.173-32.973-32.973l-54.1 21.028c-21.045 8.18-41.102-11.877-32.922-32.922L399.641 59.524Z"/>
</svg>

